<?xml version="1.0" encoding="UTF-8"?>
<svg xmlns="http://www.w3.org/2000/svg" xmlns:xlink="http://www.w3.org/1999/xlink" width="32px" height="32px" viewBox="0 0 32 32" version="1.1">
<g id="surface1">
<rect x="0" y="0" width="32" height="32" style="fill:rgb(96.078432%,96.078432%,96.078432%);fill-opacity:1;stroke:none;"/>
<path style="fill-rule:evenodd;fill:rgb(96.078432%,96.078432%,96.078432%);fill-opacity:1;stroke-width:0.5;stroke-linecap:butt;stroke-linejoin:miter;stroke:rgb(96.078432%,96.078432%,96.078432%);stroke-opacity:1;stroke-miterlimit:4;" d="M 0 0 C 341.375 0 682.625 0 1024 0 C 1024 341.375 1024 682.625 1024 1024 C 682.625 1024 341.375 1024 0 1024 C 0 682.625 0 341.375 0 0 Z M 460.75 372.75 C 461.875 373.625 463.125 374.125 464.5 374.25 C 466.75 372.875 469 371.75 471.25 370.625 C 471.875 370 472.625 369.375 473.375 368.875 C 480.5 364.75 487.625 360.875 494.875 357.25 C 497 356.125 499.25 355 501.375 353.875 C 501.75 353.375 501.625 352.875 501.125 352.5 C 456.875 327 416 295 412.625 239.75 C 412.25 237.5 410.75 236.125 408.5 236 C 398.875 235.375 389.25 235.375 379.5 235.75 C 376.875 235.625 375.25 237 375 239.625 C 375.375 297.25 414.125 343.25 460.75 372.75 Z M 539 342.875 C 538.875 342 538.5 341.75 537.75 342.25 C 534.875 343.75 532 345.25 529.25 346.75 C 515.125 354.625 501 362.5 486.875 370.375 C 485.125 371.625 482 373.125 481.375 375.375 C 477.125 377.75 473 380.25 468.875 382.625 C 456.25 390.125 444.375 398.375 432.875 407.375 C 416 420.375 402.125 435.875 391 454 C 363.75 500.5 373 553.375 408.875 592.125 C 414.25 598.125 420 603.75 426 609 C 428.25 611 430.5 612.75 432.75 614.625 C 438.375 619 444 623.125 449.75 627.25 C 453.125 629.375 456.375 631.625 459.75 633.75 C 461.125 634.625 462.625 635.25 464.375 635.375 C 466.875 634.75 469.125 633.5 471 631.75 C 478.75 627.75 486.375 623.5 493.875 619.125 C 495 618.625 496 618 497.125 617.375 C 498.375 616.625 499.75 616 501 615.375 C 503.125 613.75 499.25 612.5 498.25 611.75 C 494.75 609.875 491.375 608 488 606 C 485.375 604.5 482.875 603 480.375 601.25 C 466 592.375 453 581.875 441 569.875 C 437.875 566.5 434.875 562.75 432 559 C 418.875 540.75 412.375 519 416.875 496.5 C 420.875 479.375 429.875 464.125 441.875 451.375 C 458.5 433.75 479.5 420.75 500.375 408.75 C 518.375 398.75 536.25 388.75 554.125 378.5 C 582.5 361 608 341 626.25 312.625 C 640.125 291.375 647.875 268 649.25 242.5 C 649.875 237.75 647.75 235.375 643 235.375 C 634.5 235.5 625.875 235.375 617.375 235.25 C 614.125 235.125 612 236.5 611.125 239.5 C 610.25 259.875 604 278.25 592.25 294.875 C 578.25 315.125 559.5 329.875 539 342.875 Z M 426 256 C 426.375 258.125 427.625 259.25 429.625 259.625 C 484 260.25 539 259.875 593.375 259.75 C 598.75 259.875 599.5 253.25 594.375 252 C 540.5 251.125 485.625 251.625 431.5 251.875 C 428.375 251.5 426.5 252.875 426 256 Z M 445.125 291 C 445.5 294.75 447.75 296.875 451.5 297.125 C 465.375 294.375 480.125 295.625 494.375 295.625 C 495.25 294.875 496 294.875 496.875 295.875 C 503.25 294.875 525.375 296.25 530.125 295 C 531.625 296.125 531.25 296.75 532.625 295.125 C 533.25 296 533.75 296 534.375 295.125 C 542.625 296.125 557.75 294.875 567 295.75 C 571.75 298.125 576 298.375 578.5 293 C 580 282.5 570 285.375 565.375 286.875 C 529.125 287.25 492.875 287.25 456.75 286.875 C 451.75 284.375 446.5 284.375 445.125 291 Z M 482.75 327 C 483.25 329.125 484.5 330.375 486.625 330.875 C 493.625 330.375 537.875 332.875 540.25 329 C 541.5 326 540.5 324 537.375 323.25 C 520.125 322.75 502.875 322.75 485.75 323.25 C 484 324 483.125 325.25 482.75 327 Z M 552.875 390.375 C 550.5 391.625 530.25 402.25 530 402.875 C 527.625 404.375 525.125 405.75 522.625 407 C 522.25 407.25 522.125 407.625 522.5 408 C 527.625 411.125 532.875 414.25 538.125 417.375 C 542.375 420 546.625 422.75 550.75 425.625 C 575.375 442 597.625 462.75 606 492 C 609.375 504.625 609.375 517.375 606 530 C 601.375 546.25 592.125 560 580.625 572.125 C 568.25 584.375 554.5 595 539.625 604.125 C 533.625 607.5 527.75 610.875 522 614.375 C 481.25 637 438 657.625 407.875 694.375 C 396.125 708.5 387.5 724.375 381.75 741.875 C 379.375 741 378.625 746.75 378 748.25 C 376.875 754.625 375.625 761 374.375 767.5 C 373.5 772.5 373.25 777.5 373.625 782.5 C 373.625 783.5 373.5 784.5 373.25 785.375 C 374.25 786.25 375.25 787.25 376.25 788.125 C 377.875 788.875 379.375 789.75 380.75 790.75 C 381.5 790.75 382.125 790.5 382.625 789.875 C 384.5 791 388.25 791 390.5 791 C 396.125 790 401.875 789.5 407.625 789.375 C 411.75 789.5 414.25 787.5 415.125 783.5 C 415.5 778.5 415.75 773.5 415.875 768.5 C 416.25 765.875 416.625 763.25 417.125 760.625 C 417.5 759.375 419.25 757.125 416.75 757 C 421.25 742.25 428.5 728.875 438.625 717.125 C 442 713.375 445.5 709.625 449.125 706.125 C 450.125 705.125 451.125 704.125 452.25 703.25 C 475.75 682.25 504.625 668.25 531.875 652.75 C 534.125 653.875 536.375 653.875 538.625 652.75 C 541.875 650.375 545 648 548.25 645.625 C 554.875 641.75 561.25 637.5 567.625 633.125 C 568.125 632.875 568.625 632.625 569.125 632.5 C 570 631.625 569.75 631.125 568.625 631 C 570.125 630 571.625 629 573 628 C 577.875 624.875 582.5 621.5 587.125 618.125 C 600.625 608.125 612.5 596.5 622.75 583.375 C 632.75 570.75 640 556.625 644.5 541.125 C 645.125 543 645.625 542.875 646.125 541 C 648.125 533.625 649.625 526.125 650.5 518.5 C 650.75 513.25 650.625 508.125 650.125 503 C 649.875 501.625 649.875 499.125 648 499 C 647.625 494.875 646.875 491 646 487 C 639.375 457.75 621.75 434.75 600.125 415 C 592 407.625 583.25 400.875 574.25 394.75 C 570.5 392.75 563.875 386.625 559.75 386.75 C 557.375 387.75 555.125 388.875 552.875 390.375 Z M 476.125 440 C 476.375 442.125 477.5 443.5 479.625 444 C 500.875 444.5 522.125 444.5 543.375 444 C 548.125 444 549.375 438.625 545.125 436.625 C 524.25 435.875 501.75 436.25 480.625 436.25 C 478.25 436.375 476.75 437.625 476.125 440 Z M 441.125 476 C 442.625 483.875 449.25 481.625 454.625 480.125 C 493.25 480 531.75 480 570.375 480.25 C 575.125 481.875 579.25 484.125 582.25 477.875 C 584 469.375 576 468.625 570.375 471.875 C 531.75 471.875 493.25 471.875 454.625 471.875 C 449 469.875 442.75 467.625 441.125 476 Z M 426.125 512 C 427.5 515.125 429.625 515.375 432.75 515.375 C 448.75 515.375 464.75 515.5 480.75 515.75 C 482.5 515.625 481.875 514.25 483.625 515.75 C 519.125 515 554.875 515.875 590.375 515.375 C 601.375 515.375 598.125 506.5 591.375 507.5 C 537.5 507.125 483.625 507.125 429.75 507.375 C 427.625 508.125 426.375 509.625 426.125 512 Z M 441.125 547 C 443.125 555 449.125 552.375 454.625 551 C 493.125 550.875 531.75 550.875 570.375 551.125 C 575.5 553.75 584.625 553.375 582.125 544.375 C 577.875 537.125 573.875 541.75 569.25 542.625 C 530.75 542.75 492.25 542.75 453.75 542.5 C 448.125 539.375 442.375 539.375 441.125 547 Z M 476 582 C 476.125 583.875 477 585.125 478.625 585.875 C 500 586.75 522 586.375 543.5 586 C 548.75 586.125 549.375 579.5 544.25 578.375 C 522.75 577.875 501.25 577.875 479.625 578.375 C 477.5 578.625 476.375 579.875 476 582 Z M 552.75 652 C 544.75 656.25 536.875 660.625 529 664.875 C 527.125 666 525.375 667 523.5 668.125 C 522.875 668.75 522.875 669.375 523.5 669.875 C 552.5 686.5 578.625 704.375 596.75 733.25 C 605.875 748.75 610.5 765.5 610.875 783.5 C 611.375 786.75 613.25 788.25 616.5 788.25 C 625.875 788.25 635.125 788.25 644.5 788.25 C 648.625 787.625 649.25 784 649 780.5 C 648.125 762.25 644 744.75 637 728 C 621.75 694.625 593.625 667.625 562.5 649 C 559.125 646.75 555.375 650.25 552.75 652 Z M 481.75 694 C 482.125 696.125 483.5 697.375 485.625 697.875 C 493 697.375 538.75 699.75 541.5 696.125 C 542.875 692.875 541.75 690.875 538.375 690.125 C 521.5 689.75 504.5 689.75 487.5 689.875 C 484.25 689.375 482.25 690.75 481.75 694 Z M 444.875 730 C 446.625 737.5 452.5 735.375 457.5 734 C 493.75 734 530.25 733.5 566.375 734.125 C 571 735.5 575.125 737.625 578.5 732 C 580.75 718 567.75 726.125 562.875 725.125 C 561.25 726.25 561.75 726.625 560.375 725.125 C 559.75 726 559.25 726 558.625 725.125 C 557.375 726.625 557.75 726.25 556.125 725.125 C 549.5 726.125 498.125 725.375 486.5 725.5 C 484.375 725.75 485.75 726.875 483.25 725 C 482.625 726.875 482.875 725.875 481.125 725 C 479.375 726.25 461 724.875 457.875 725.625 C 452.375 723.125 445.875 720.875 444.875 730 Z M 426 765 C 426.375 767.125 427.5 768.375 429.625 768.75 C 483.5 769.625 538.5 769 592.5 769 C 598.125 769.5 600.375 762.875 594.375 761.25 C 540.5 760.875 485.625 760.875 431.625 761.25 C 428.75 761 426.875 762.25 426 765 Z M 426 765 " transform="matrix(0.03125,0,0,0.03125,0,0)"/>
<path style=" stroke:none;fill-rule:evenodd;fill:rgb(62.352943%,81.960785%,93.333334%);fill-opacity:1;" d="M 19.914062 23.621094 C 19.980469 23.851562 20.015625 24.085938 20.023438 24.328125 C 20.023438 24.355469 20.011719 24.371094 19.984375 24.375 C 19.777344 24.382812 19.570312 24.378906 19.363281 24.371094 C 19.347656 24.363281 19.339844 24.347656 19.339844 24.328125 C 19.332031 24.132812 19.304688 23.9375 19.253906 23.75 C 19.339844 23.757812 19.308594 23.863281 19.324219 23.921875 C 19.347656 24.058594 19.378906 24.1875 19.414062 24.320312 C 19.433594 24.339844 19.457031 24.347656 19.484375 24.34375 C 19.625 24.34375 19.769531 24.339844 19.910156 24.335938 C 19.953125 24.320312 19.972656 24.285156 19.96875 24.238281 C 19.96875 24.140625 19.964844 24.046875 19.957031 23.949219 C 19.949219 23.925781 19.9375 23.902344 19.925781 23.882812 C 19.925781 23.851562 19.921875 23.824219 19.914062 23.796875 C 19.859375 23.738281 19.863281 23.679688 19.914062 23.621094 Z M 19.914062 23.621094 "/>
<path style=" stroke:none;fill-rule:evenodd;fill:rgb(89.411765%,97.254902%,98.823529%);fill-opacity:1;" d="M 11.929688 23.183594 C 11.800781 23.605469 11.730469 24.039062 11.722656 24.484375 C 11.742188 24.59375 11.808594 24.644531 11.921875 24.632812 C 12.183594 24.632812 12.441406 24.632812 12.703125 24.632812 C 12.804688 24.648438 12.871094 24.605469 12.902344 24.515625 C 12.910156 24.347656 12.925781 24.183594 12.949219 24.015625 C 12.964844 23.894531 12.992188 23.777344 13.023438 23.65625 C 13.101562 23.660156 13.046875 23.730469 13.035156 23.769531 C 13.019531 23.851562 13.007812 23.933594 12.996094 24.015625 C 12.992188 24.171875 12.984375 24.328125 12.972656 24.484375 C 12.945312 24.609375 12.867188 24.671875 12.738281 24.667969 C 12.558594 24.671875 12.378906 24.6875 12.203125 24.71875 C 12.132812 24.71875 12.015625 24.71875 11.957031 24.683594 C 11.941406 24.703125 11.921875 24.710938 11.898438 24.710938 C 11.855469 24.679688 11.808594 24.652344 11.757812 24.628906 C 11.726562 24.601562 11.695312 24.570312 11.664062 24.542969 C 11.671875 24.515625 11.675781 24.484375 11.675781 24.453125 C 11.664062 24.296875 11.671875 24.140625 11.699219 23.984375 C 11.738281 23.78125 11.777344 23.582031 11.8125 23.382812 C 11.832031 23.335938 11.855469 23.15625 11.929688 23.183594 Z M 11.929688 23.183594 "/>
<path style=" stroke:none;fill-rule:evenodd;fill:rgb(91.37255%,98.039216%,99.215686%);fill-opacity:1;" d="M 17.769531 19.71875 C 17.804688 19.722656 17.8125 19.738281 17.785156 19.765625 C 17.769531 19.769531 17.753906 19.777344 17.738281 19.785156 C 17.539062 19.921875 17.339844 20.054688 17.132812 20.175781 C 17.03125 20.25 16.933594 20.324219 16.832031 20.398438 C 16.761719 20.433594 16.691406 20.433594 16.621094 20.398438 C 17.015625 20.191406 17.398438 19.964844 17.769531 19.71875 Z M 17.769531 19.71875 "/>
<path style=" stroke:none;fill-rule:evenodd;fill:rgb(87.843138%,97.647059%,99.215686%);fill-opacity:1;" d="M 20.25 15.59375 C 20.308594 15.597656 20.308594 15.675781 20.316406 15.71875 C 20.332031 15.878906 20.335938 16.039062 20.328125 16.203125 C 20.300781 16.441406 20.253906 16.675781 20.191406 16.90625 C 20.175781 16.964844 20.160156 16.96875 20.140625 16.910156 C 20.269531 16.476562 20.308594 16.039062 20.25 15.59375 Z M 20.25 15.59375 "/>
<path style=" stroke:none;fill-rule:evenodd;fill:rgb(34.509805%,57.647061%,70.980394%);fill-opacity:1;" d="M 20.1875 15.21875 C 20.214844 15.34375 20.238281 15.464844 20.25 15.59375 C 20.308594 16.039062 20.269531 16.476562 20.140625 16.910156 C 20 17.394531 19.773438 17.835938 19.460938 18.230469 C 19.140625 18.640625 18.769531 19.003906 18.347656 19.316406 C 18.339844 19.300781 18.34375 19.289062 18.351562 19.277344 C 18.394531 19.234375 18.433594 19.191406 18.472656 19.144531 C 18.601562 19.042969 18.726562 18.941406 18.847656 18.832031 C 18.972656 18.714844 19.09375 18.597656 19.210938 18.476562 C 19.386719 18.246094 19.558594 18.011719 19.726562 17.773438 C 19.8125 17.605469 19.898438 17.4375 19.980469 17.269531 C 20.046875 17.0625 20.113281 16.851562 20.171875 16.640625 C 20.171875 16.554688 20.1875 16.46875 20.214844 16.386719 C 20.214844 16.230469 20.226562 16.078125 20.242188 15.921875 C 20.234375 15.878906 20.230469 15.839844 20.21875 15.796875 C 20.21875 15.660156 20.210938 15.539062 20.171875 15.40625 C 20.171875 15.382812 20.171875 15.355469 20.171875 15.328125 C 20.167969 15.308594 20.121094 15.199219 20.1875 15.21875 Z M 13.78125 17.808594 C 14.15625 18.183594 14.5625 18.511719 15.011719 18.789062 C 15.089844 18.84375 15.167969 18.890625 15.25 18.9375 C 15.269531 19.023438 15.105469 18.898438 15.085938 18.894531 C 14.890625 18.765625 14.699219 18.632812 14.503906 18.503906 C 14.421875 18.441406 14.347656 18.375 14.273438 18.304688 C 14.246094 18.292969 14.21875 18.277344 14.191406 18.261719 C 14.128906 18.199219 14.070312 18.132812 14.007812 18.070312 C 13.976562 18.050781 13.945312 18.027344 13.914062 18.011719 C 13.859375 17.957031 13.808594 17.90625 13.757812 17.851562 C 13.753906 17.832031 13.761719 17.816406 13.78125 17.808594 Z M 17.90625 19.625 C 17.863281 19.65625 17.816406 19.6875 17.769531 19.71875 C 17.398438 19.964844 17.015625 20.191406 16.621094 20.398438 C 15.769531 20.882812 14.867188 21.320312 14.132812 21.976562 C 14.105469 21.972656 14.101562 21.960938 14.113281 21.941406 C 14.152344 21.898438 14.195312 21.855469 14.238281 21.816406 C 14.304688 21.757812 14.375 21.703125 14.445312 21.648438 C 14.527344 21.597656 14.609375 21.542969 14.679688 21.472656 C 14.777344 21.421875 14.875 21.363281 14.976562 21.300781 C 15.027344 21.257812 15.078125 21.21875 15.128906 21.179688 C 15.269531 21.101562 15.40625 21.019531 15.542969 20.933594 C 15.691406 20.867188 15.835938 20.792969 15.976562 20.710938 C 15.988281 20.699219 15.996094 20.691406 16.007812 20.679688 C 16.03125 20.671875 16.054688 20.667969 16.078125 20.660156 C 16.125 20.605469 16.1875 20.570312 16.257812 20.554688 C 16.265625 20.542969 16.277344 20.53125 16.285156 20.519531 C 16.527344 20.398438 16.765625 20.273438 17.003906 20.144531 C 17.019531 20.128906 17.035156 20.113281 17.050781 20.101562 C 17.09375 20.09375 17.125 20.070312 17.144531 20.035156 C 17.265625 19.976562 17.378906 19.882812 17.503906 19.839844 C 17.625 19.757812 17.742188 19.675781 17.863281 19.59375 C 17.890625 19.585938 17.90625 19.597656 17.90625 19.625 Z M 19.90625 22.75 C 20.125 23.273438 20.253906 23.820312 20.28125 24.390625 C 20.289062 24.5 20.269531 24.613281 20.140625 24.632812 C 19.847656 24.632812 19.558594 24.632812 19.265625 24.632812 C 19.164062 24.632812 19.105469 24.585938 19.089844 24.484375 C 19.078125 23.921875 18.933594 23.398438 18.648438 22.914062 C 18.675781 22.816406 18.765625 23.023438 18.78125 23.042969 C 18.851562 23.25 18.933594 23.449219 19.019531 23.644531 C 19.035156 23.75 19.058594 23.851562 19.09375 23.949219 C 19.101562 24.054688 19.113281 24.160156 19.128906 24.265625 C 19.128906 24.328125 19.128906 24.390625 19.125 24.449219 C 19.160156 24.507812 19.183594 24.597656 19.265625 24.589844 C 19.558594 24.589844 19.847656 24.59375 20.140625 24.589844 C 20.234375 24.554688 20.214844 24.472656 20.238281 24.390625 C 20.226562 24.265625 20.21875 24.140625 20.210938 24.015625 C 20.171875 23.898438 20.152344 23.777344 20.144531 23.65625 C 20.109375 23.480469 20.0625 23.304688 20.011719 23.136719 C 19.972656 23.035156 19.933594 22.9375 19.890625 22.839844 C 19.886719 22.8125 19.882812 22.78125 19.886719 22.75 C 19.894531 22.75 19.898438 22.75 19.90625 22.75 Z M 19.90625 22.75 "/>
<path style="fill-rule:evenodd;fill:rgb(75.294119%,79.607844%,81.568629%);fill-opacity:1;stroke-width:0.5;stroke-linecap:butt;stroke-linejoin:miter;stroke:rgb(75.294119%,79.607844%,81.568629%);stroke-opacity:1;stroke-miterlimit:4;" d="M 476.125 440 C 476.75 437.625 478.25 436.375 480.625 436.25 C 501.75 436.25 524.25 435.875 545.125 436.625 C 549.375 438.625 548.125 444 543.375 444 C 522.125 444.5 500.875 444.5 479.625 444 C 477.5 443.5 476.375 442.125 476.125 440 Z M 476.125 440 " transform="matrix(0.03125,0,0,0.03125,0,0)"/>
<path style=" stroke:none;fill-rule:evenodd;fill:rgb(35.294119%,58.039218%,71.372551%);fill-opacity:1;" d="M 17.210938 13.300781 C 17.242188 13.261719 17.292969 13.3125 17.324219 13.324219 C 17.453125 13.410156 17.578125 13.503906 17.699219 13.597656 C 17.726562 13.648438 17.769531 13.679688 17.824219 13.691406 C 17.878906 13.75 17.9375 13.808594 17.992188 13.867188 C 18.027344 13.882812 18.058594 13.90625 18.089844 13.925781 C 18.203125 14.042969 18.3125 14.164062 18.417969 14.285156 C 18.433594 14.3125 18.449219 14.339844 18.464844 14.367188 C 18.480469 14.378906 18.496094 14.394531 18.511719 14.410156 C 18.542969 14.460938 18.574219 14.515625 18.605469 14.566406 C 18.621094 14.589844 18.640625 14.613281 18.664062 14.632812 C 18.703125 14.707031 18.746094 14.78125 18.796875 14.847656 C 18.816406 14.890625 18.828125 14.9375 18.832031 14.984375 C 18.886719 15.039062 18.882812 15.121094 18.917969 15.183594 C 18.933594 15.242188 18.949219 15.296875 18.960938 15.355469 C 18.960938 15.371094 18.953125 15.378906 18.9375 15.375 C 18.675781 14.460938 17.980469 13.8125 17.210938 13.300781 Z M 17.210938 13.300781 "/>
<path style="fill-rule:evenodd;fill:rgb(69.803923%,81.960785%,89.803922%);fill-opacity:1;stroke-width:0.5;stroke-linecap:butt;stroke-linejoin:miter;stroke:rgb(69.803923%,81.960785%,89.803922%);stroke-opacity:1;stroke-miterlimit:4;" d="M 552.875 390.375 C 552.75 391 553 391.5 553.5 391.875 C 574.125 403.75 592.5 418.25 608.75 435.75 C 637.375 466.75 650.25 510.25 632.5 550.25 C 630.875 550.125 629.625 549.375 628.625 548 C 628.5 548 628.375 548 628.25 548 C 635.625 481.25 590.75 440.625 539.5 408 C 536.375 406.125 533.25 404.5 530 402.875 C 530.25 402.25 550.5 391.625 552.875 390.375 Z M 393.375 467.75 C 394.25 468.125 394.875 468.625 395.25 469.5 C 394.875 471.75 394.75 474.125 394.875 476.5 C 395 477.125 395.125 477.625 395.5 478.125 C 394.875 485.875 394.875 493.625 395.375 501.25 C 400.25 554.125 450.625 595 493.875 619.125 C 486.375 623.5 478.75 627.75 471 631.75 C 470.875 630.125 468.625 629.375 467.375 628.625 C 426.625 603.375 385.375 565.75 383.375 514.375 C 383 498.125 386.375 482.5 393.375 467.75 Z M 552.75 652 C 553 652.625 553.375 653.125 554 653.375 C 593.5 677.25 626.75 709.5 637.25 755.875 C 635.625 757.75 635.5 759.625 637.25 761.5 C 637.5 762.375 637.625 763.25 637.625 764.25 C 638 764.875 638.375 765.625 638.625 766.375 C 638.875 769.5 639 772.5 639 775.625 C 639.125 777.125 638.5 778.25 637.125 778.75 C 632.625 778.875 628 779 623.5 779 C 622.625 779.125 621.875 778.875 621.25 778.25 C 620.125 774 619.125 769.875 618.375 765.5 C 617.875 763.625 618.875 760.25 616.125 760 C 606.5 716.625 569.25 685.75 532 665.5 C 531 665 530 664.875 529 664.875 C 536.875 660.625 544.75 656.25 552.75 652 Z M 552.75 652 " transform="matrix(0.03125,0,0,0.03125,0,0)"/>
<path style=" stroke:none;fill-rule:evenodd;fill:rgb(32.941177%,56.862748%,69.803923%);fill-opacity:1;" d="M 14.652344 11.957031 C 14.664062 11.960938 14.675781 11.972656 14.679688 11.984375 C 14.601562 12.042969 14.519531 12.09375 14.433594 12.140625 C 14.347656 12.195312 14.265625 12.257812 14.1875 12.324219 C 14.132812 12.351562 14.078125 12.382812 14.027344 12.417969 C 14.015625 12.429688 14.007812 12.441406 13.996094 12.449219 C 13.9375 12.472656 13.886719 12.5 13.835938 12.542969 C 13.632812 12.710938 13.425781 12.882812 13.21875 13.050781 C 12.851562 13.382812 12.542969 13.753906 12.28125 14.171875 C 12.261719 14.1875 12.242188 14.195312 12.21875 14.1875 C 12.566406 13.621094 13 13.136719 13.527344 12.730469 C 13.886719 12.449219 14.257812 12.191406 14.652344 11.957031 Z M 14.652344 11.957031 "/>
<path style=" stroke:none;fill-rule:evenodd;fill:rgb(85.882354%,96.470588%,98.823529%);fill-opacity:1;" d="M 16.84375 10.714844 C 16.636719 10.839844 16.425781 10.964844 16.214844 11.085938 C 15.824219 11.300781 15.433594 11.519531 15.042969 11.730469 C 15.0625 11.660156 15.160156 11.613281 15.214844 11.574219 C 15.65625 11.328125 16.097656 11.082031 16.539062 10.835938 C 16.625 10.789062 16.714844 10.742188 16.804688 10.695312 C 16.828125 10.679688 16.839844 10.6875 16.84375 10.714844 Z M 16.84375 10.714844 "/>
<path style="fill-rule:evenodd;fill:rgb(76.078433%,80.000001%,81.568629%);fill-opacity:1;stroke-width:0.5;stroke-linecap:butt;stroke-linejoin:miter;stroke:rgb(76.078433%,80.000001%,81.568629%);stroke-opacity:1;stroke-miterlimit:4;" d="M 426 256 C 426.5 252.875 428.375 251.5 431.5 251.875 C 485.625 251.625 540.5 251.125 594.375 252 C 599.5 253.25 598.75 259.875 593.375 259.75 C 539 259.875 484 260.25 429.625 259.625 C 427.625 259.25 426.375 258.125 426 256 Z M 445.125 291 C 446.5 284.375 451.75 284.375 456.75 286.875 C 492.875 287.25 529.125 287.25 565.375 286.875 C 570 285.375 580 282.5 578.5 293 C 576 298.375 571.75 298.125 567 295.75 C 557.75 294.875 542.625 296.125 534.375 295.125 C 533.75 296 533.25 296 532.625 295.125 C 531.25 296.75 531.625 296.125 530.125 295 C 525.375 296.25 503.25 294.875 496.875 295.875 C 496 294.875 495.25 294.875 494.375 295.625 C 480.125 295.625 465.375 294.375 451.5 297.125 C 447.75 296.875 445.5 294.75 445.125 291 Z M 482.75 327 C 483.125 325.25 484 324 485.75 323.25 C 502.875 322.75 520.125 322.75 537.375 323.25 C 540.5 324 541.5 326 540.25 329 C 537.875 332.875 493.625 330.375 486.625 330.875 C 484.5 330.375 483.25 329.125 482.75 327 Z M 441.125 476 C 442.75 467.625 449 469.875 454.625 471.875 C 493.25 471.875 531.75 471.875 570.375 471.875 C 576 468.625 584 469.375 582.25 477.875 C 579.25 484.125 575.125 481.875 570.375 480.25 C 531.75 480 493.25 480 454.625 480.125 C 449.25 481.625 442.625 483.875 441.125 476 Z M 426.125 512 C 426.375 509.625 427.625 508.125 429.75 507.375 C 483.625 507.125 537.5 507.125 591.375 507.5 C 598.125 506.5 601.375 515.375 590.375 515.375 C 554.875 515.875 519.125 515 483.625 515.75 C 481.875 514.25 482.5 515.625 480.75 515.75 C 464.75 515.5 448.75 515.375 432.75 515.375 C 429.625 515.375 427.5 515.125 426.125 512 Z M 441.125 547 C 442.375 539.375 448.125 539.375 453.75 542.5 C 492.25 542.75 530.75 542.75 569.25 542.625 C 573.875 541.75 577.875 537.125 582.125 544.375 C 584.625 553.375 575.5 553.75 570.375 551.125 C 531.75 550.875 493.125 550.875 454.625 551 C 449.125 552.375 443.125 555 441.125 547 Z M 476 582 C 476.375 579.875 477.5 578.625 479.625 578.375 C 501.25 577.875 522.75 577.875 544.25 578.375 C 549.375 579.5 548.75 586.125 543.5 586 C 522 586.375 500 586.75 478.625 585.875 C 477 585.125 476.125 583.875 476 582 Z M 481.75 694 C 482.25 690.75 484.25 689.375 487.5 689.875 C 504.5 689.75 521.5 689.75 538.375 690.125 C 541.75 690.875 542.875 692.875 541.5 696.125 C 538.75 699.75 493 697.375 485.625 697.875 C 483.5 697.375 482.125 696.125 481.75 694 Z M 444.875 730 C 445.875 720.875 452.375 723.125 457.875 725.625 C 461 724.875 479.375 726.25 481.125 725 C 482.875 725.875 482.625 726.875 483.25 725 C 485.75 726.875 484.375 725.75 486.5 725.5 C 498.125 725.375 549.5 726.125 556.125 725.125 C 557.75 726.25 557.375 726.625 558.625 725.125 C 559.25 726 559.75 726 560.375 725.125 C 561.75 726.625 561.25 726.25 562.875 725.125 C 567.75 726.125 580.75 718 578.5 732 C 575.125 737.625 571 735.5 566.375 734.125 C 530.25 733.5 493.75 734 457.5 734 C 452.5 735.375 446.625 737.5 444.875 730 Z M 426 765 C 426.875 762.25 428.75 761 431.625 761.25 C 485.625 760.875 540.5 760.875 594.375 761.25 C 600.375 762.875 598.125 769.5 592.5 769 C 538.5 769 483.5 769.625 429.625 768.75 C 427.5 768.375 426.375 767.125 426 765 Z M 426 765 " transform="matrix(0.03125,0,0,0.03125,0,0)"/>
<path style="fill-rule:evenodd;fill:rgb(67.450982%,81.176472%,89.411765%);fill-opacity:1;stroke-width:0.5;stroke-linecap:butt;stroke-linejoin:miter;stroke:rgb(67.450982%,81.176472%,89.411765%);stroke-opacity:1;stroke-miterlimit:4;" d="M 494.875 357.25 C 487.625 360.875 480.5 364.75 473.375 368.875 C 472.625 369.375 471.875 370 471.25 370.625 C 471.125 369.375 470.375 368.875 469.25 369.125 C 468.875 368.5 468.375 368 467.875 367.625 C 423.75 338.875 387.625 300.625 383.375 245.5 C 383.25 245 383.375 244.625 383.75 244.25 C 390 243.875 396.25 243.75 402.5 243.75 C 403.125 243.75 403.75 243.875 404.25 244.25 C 405 250.25 406.125 256.125 407.625 262 C 413 282.875 423 300 437.75 315.625 C 445.5 325.625 484.625 355.625 494.875 357.25 Z M 494.875 357.25 " transform="matrix(0.03125,0,0,0.03125,0,0)"/>
<path style=" stroke:none;fill-rule:evenodd;fill:rgb(32.549021%,56.078434%,69.803923%);fill-opacity:1;" d="M 13.5 17.46875 C 13.445312 17.496094 13.367188 17.34375 13.335938 17.3125 C 13.257812 17.167969 13.160156 17.035156 13.109375 16.875 C 13.074219 16.753906 13.035156 16.636719 13 16.515625 C 12.96875 16.382812 12.949219 16.246094 12.933594 16.113281 C 12.933594 16.027344 12.933594 15.945312 12.933594 15.859375 C 12.9375 15.722656 12.953125 15.589844 12.980469 15.460938 C 13.023438 15.34375 13.058594 15.226562 13.097656 15.109375 C 13.140625 15.007812 13.183594 14.902344 13.230469 14.800781 C 13.339844 14.640625 13.449219 14.480469 13.558594 14.316406 C 13.625 14.246094 13.6875 14.175781 13.742188 14.097656 C 13.800781 14.042969 13.859375 13.988281 13.910156 13.925781 C 13.949219 13.902344 13.984375 13.875 14.023438 13.851562 C 14.085938 13.78125 14.152344 13.714844 14.222656 13.652344 C 14.414062 13.496094 14.613281 13.347656 14.816406 13.210938 C 14.917969 13.148438 15.019531 13.082031 15.113281 13.007812 C 15.222656 12.953125 15.332031 12.894531 15.441406 12.839844 C 15.617188 12.714844 15.804688 12.605469 16.003906 12.515625 C 16.089844 12.472656 16.171875 12.421875 16.25 12.359375 C 16.273438 12.355469 16.292969 12.347656 16.316406 12.335938 C 16.617188 12.167969 16.921875 12 17.222656 11.832031 C 17.261719 11.796875 17.300781 11.765625 17.34375 11.738281 C 17.589844 11.585938 17.832031 11.433594 18.070312 11.273438 C 18.140625 11.21875 18.207031 11.160156 18.273438 11.101562 C 18.296875 11.09375 18.316406 11.082031 18.332031 11.066406 C 18.574219 10.851562 18.808594 10.628906 19.039062 10.398438 C 19.136719 10.28125 19.234375 10.160156 19.332031 10.035156 C 19.4375 9.878906 19.539062 9.722656 19.640625 9.5625 C 19.730469 9.398438 19.816406 9.234375 19.894531 9.066406 C 19.957031 8.894531 20.019531 8.726562 20.082031 8.554688 C 20.101562 8.4375 20.128906 8.320312 20.167969 8.203125 C 20.167969 8.175781 20.167969 8.144531 20.167969 8.117188 C 20.183594 8.050781 20.199219 7.984375 20.214844 7.917969 C 20.230469 7.796875 20.242188 7.671875 20.246094 7.546875 C 20.242188 7.457031 20.199219 7.410156 20.109375 7.40625 C 19.808594 7.40625 19.511719 7.410156 19.210938 7.414062 C 19.164062 7.433594 19.15625 7.507812 19.140625 7.546875 C 19.128906 7.722656 19.113281 7.898438 19.082031 8.074219 C 19.039062 8.226562 18.992188 8.375 18.941406 8.523438 C 18.933594 8.539062 18.921875 8.546875 18.914062 8.558594 C 18.90625 8.625 18.878906 8.683594 18.835938 8.734375 C 18.8125 8.789062 18.84375 8.796875 18.792969 8.839844 C 18.761719 8.902344 18.730469 8.96875 18.703125 9.03125 C 18.625 9.152344 18.539062 9.261719 18.445312 9.367188 C 18.421875 9.398438 18.402344 9.433594 18.382812 9.46875 C 18.324219 9.507812 18.324219 9.53125 18.296875 9.59375 C 18.257812 9.628906 18.21875 9.664062 18.175781 9.695312 C 18.160156 9.71875 18.144531 9.742188 18.128906 9.769531 C 17.988281 9.902344 17.839844 10.058594 17.683594 10.167969 C 17.652344 10.199219 17.625 10.230469 17.59375 10.261719 C 17.53125 10.289062 17.496094 10.292969 17.464844 10.359375 C 17.402344 10.386719 17.375 10.386719 17.339844 10.453125 C 17.320312 10.460938 17.296875 10.46875 17.277344 10.480469 C 17.0625 10.636719 16.839844 10.777344 16.605469 10.902344 C 16.550781 10.957031 16.519531 10.988281 16.433594 11.003906 C 16.382812 11.023438 16.269531 11.125 16.214844 11.085938 C 16.425781 10.964844 16.636719 10.839844 16.84375 10.714844 C 17.484375 10.308594 18.070312 9.847656 18.507812 9.214844 C 18.875 8.695312 19.070312 8.121094 19.097656 7.484375 C 19.125 7.390625 19.191406 7.347656 19.292969 7.351562 C 19.558594 7.355469 19.828125 7.359375 20.09375 7.355469 C 20.242188 7.355469 20.308594 7.429688 20.289062 7.578125 C 20.246094 8.375 20.003906 9.105469 19.570312 9.769531 C 19 10.65625 18.203125 11.28125 17.316406 11.828125 C 16.757812 12.148438 16.199219 12.460938 15.636719 12.773438 C 14.984375 13.148438 14.328125 13.554688 13.808594 14.105469 C 13.433594 14.503906 13.152344 14.980469 13.027344 15.515625 C 12.886719 16.21875 13.089844 16.898438 13.5 17.46875 Z M 18.9375 16.5625 C 18.988281 16.554688 18.96875 16.613281 18.960938 16.640625 C 18.859375 16.929688 18.742188 17.230469 18.539062 17.460938 C 18.519531 17.511719 18.496094 17.5625 18.464844 17.605469 C 18.378906 17.671875 18.308594 17.75 18.253906 17.839844 C 18.1875 17.90625 18.121094 17.972656 18.058594 18.042969 C 18.039062 18.058594 18.019531 18.066406 18 18.074219 C 17.925781 18.128906 17.863281 18.191406 17.8125 18.265625 C 17.71875 18.300781 17.660156 18.375 17.585938 18.441406 C 17.5 18.503906 17.410156 18.5625 17.320312 18.617188 C 17.304688 18.632812 17.292969 18.652344 17.277344 18.667969 C 17.257812 18.675781 17.234375 18.6875 17.210938 18.695312 C 17.132812 18.761719 17.050781 18.820312 16.960938 18.878906 C 16.835938 18.949219 16.707031 19.023438 16.582031 19.09375 C 16.535156 19.125 16.542969 19.148438 16.480469 19.148438 C 16.402344 19.195312 16.320312 19.242188 16.242188 19.289062 C 16.21875 19.324219 16.1875 19.34375 16.144531 19.347656 C 16.074219 19.390625 16 19.429688 15.921875 19.464844 C 15.621094 19.632812 15.320312 19.800781 15.011719 19.960938 C 14.820312 20.082031 14.632812 20.207031 14.441406 20.332031 C 14.359375 20.375 14.28125 20.417969 14.203125 20.464844 C 14.136719 20.539062 14.054688 20.59375 13.964844 20.628906 C 13.929688 20.660156 13.890625 20.6875 13.847656 20.707031 C 13.835938 20.726562 13.824219 20.742188 13.8125 20.761719 C 13.789062 20.769531 13.765625 20.78125 13.742188 20.792969 C 13.488281 21.035156 13.199219 21.242188 12.964844 21.511719 C 12.945312 21.535156 12.929688 21.5625 12.917969 21.589844 C 12.890625 21.613281 12.863281 21.640625 12.835938 21.664062 C 12.6875 21.859375 12.527344 22.050781 12.398438 22.261719 C 12.335938 22.375 12.273438 22.488281 12.207031 22.601562 C 12.148438 22.742188 12.09375 22.878906 12.035156 23.019531 C 11.988281 23.140625 11.945312 23.265625 11.90625 23.394531 C 11.859375 23.621094 11.816406 23.851562 11.785156 24.082031 C 11.78125 24.207031 11.773438 24.328125 11.757812 24.453125 C 11.78125 24.515625 11.8125 24.589844 11.890625 24.589844 C 12.171875 24.589844 12.453125 24.585938 12.730469 24.582031 C 12.921875 24.542969 12.855469 24.339844 12.871094 24.203125 C 12.894531 24.101562 12.910156 23.996094 12.914062 23.890625 C 12.9375 23.835938 12.949219 23.777344 12.953125 23.71875 C 12.996094 23.585938 13.039062 23.449219 13.078125 23.316406 C 13.144531 23.171875 13.214844 23.035156 13.289062 22.894531 C 13.378906 22.75 13.480469 22.609375 13.585938 22.472656 C 13.644531 22.417969 13.699219 22.355469 13.742188 22.285156 C 13.824219 22.214844 13.902344 22.136719 13.976562 22.054688 C 14.003906 22.023438 14.023438 22.027344 14.035156 22.066406 C 13.921875 22.175781 13.8125 22.292969 13.707031 22.410156 C 13.390625 22.777344 13.164062 23.195312 13.023438 23.65625 C 12.992188 23.777344 12.964844 23.894531 12.949219 24.015625 C 12.925781 24.183594 12.910156 24.347656 12.902344 24.515625 C 12.871094 24.605469 12.804688 24.648438 12.703125 24.632812 C 12.441406 24.632812 12.183594 24.632812 11.921875 24.632812 C 11.808594 24.644531 11.742188 24.59375 11.722656 24.484375 C 11.730469 24.039062 11.800781 23.605469 11.929688 23.183594 C 12.109375 22.636719 12.378906 22.140625 12.746094 21.699219 C 13.6875 20.550781 15.039062 19.90625 16.3125 19.199219 C 16.492188 19.089844 16.675781 18.984375 16.863281 18.878906 C 17.328125 18.59375 17.757812 18.261719 18.144531 17.878906 C 18.503906 17.5 18.792969 17.070312 18.9375 16.5625 Z M 18.9375 16.5625 "/>
<path style=" stroke:none;fill-rule:evenodd;fill:rgb(34.509805%,57.647061%,71.372551%);fill-opacity:1;" d="M 17.945312 12.335938 C 18.226562 12.527344 18.5 12.738281 18.753906 12.96875 C 18.75 12.996094 18.738281 13.003906 18.710938 12.988281 C 18.609375 12.894531 18.503906 12.804688 18.398438 12.714844 C 18.238281 12.601562 18.054688 12.496094 17.917969 12.359375 C 17.921875 12.347656 17.929688 12.339844 17.945312 12.335938 Z M 17.945312 12.335938 "/>
<path style=" stroke:none;fill-rule:evenodd;fill:rgb(60.392159%,81.960785%,94.901961%);fill-opacity:1;" d="M 19.632812 17.125 C 19.636719 17.125 19.640625 17.125 19.644531 17.125 C 19.675781 17.167969 19.714844 17.191406 19.765625 17.195312 C 19.6875 17.371094 19.605469 17.546875 19.519531 17.722656 C 19.5 17.742188 19.484375 17.773438 19.460938 17.742188 C 19.472656 17.691406 19.496094 17.640625 19.523438 17.597656 C 19.574219 17.445312 19.609375 17.285156 19.632812 17.125 Z M 19.632812 17.125 "/>
<path style=" stroke:none;fill-rule:evenodd;fill:rgb(61.56863%,83.92157%,96.078432%);fill-opacity:1;" d="M 12.359375 14.941406 C 12.347656 14.925781 12.34375 14.910156 12.339844 14.890625 C 12.335938 14.816406 12.339844 14.742188 12.351562 14.671875 C 12.339844 14.644531 12.320312 14.628906 12.292969 14.617188 C 12.355469 14.484375 12.417969 14.355469 12.484375 14.226562 C 12.507812 14.183594 12.527344 14.1875 12.539062 14.234375 C 12.527344 14.257812 12.515625 14.277344 12.496094 14.300781 C 12.441406 14.515625 12.386719 14.71875 12.359375 14.941406 Z M 12.359375 14.941406 "/>
<path style=" stroke:none;fill-rule:evenodd;fill:rgb(36.470589%,58.823532%,71.764708%);fill-opacity:1;" d="M 13.3125 19.03125 C 13.125 18.867188 12.945312 18.691406 12.777344 18.503906 C 12.78125 18.488281 12.792969 18.484375 12.808594 18.492188 C 12.972656 18.660156 13.140625 18.828125 13.308594 18.996094 C 13.316406 19.007812 13.316406 19.019531 13.3125 19.03125 Z M 13.3125 19.03125 "/>
<path style=" stroke:none;fill-rule:evenodd;fill:rgb(35.294119%,57.647061%,70.19608%);fill-opacity:1;" d="M 13.523438 19.207031 C 13.539062 19.195312 13.554688 19.195312 13.570312 19.199219 C 13.679688 19.28125 13.789062 19.355469 13.90625 19.425781 C 13.960938 19.46875 14.015625 19.515625 14.070312 19.566406 C 14.082031 19.582031 14.078125 19.59375 14.054688 19.601562 C 13.875 19.472656 13.699219 19.34375 13.523438 19.207031 Z M 13.523438 19.207031 "/>
<path style=" stroke:none;fill-rule:evenodd;fill:rgb(36.470589%,56.862748%,69.01961%);fill-opacity:1;" d="M 14.605469 19.644531 C 14.644531 19.667969 14.714844 19.691406 14.71875 19.742188 C 14.660156 19.796875 14.589844 19.835938 14.511719 19.855469 C 14.457031 19.851562 14.410156 19.832031 14.367188 19.804688 C 14.382812 19.792969 14.398438 19.789062 14.417969 19.792969 C 14.515625 19.820312 14.511719 19.808594 14.597656 19.769531 C 14.65625 19.726562 14.625 19.695312 14.605469 19.644531 Z M 14.605469 19.644531 "/>
<path style=" stroke:none;fill-rule:evenodd;fill:rgb(40.784314%,60.000002%,70.980394%);fill-opacity:1;" d="M 14.664062 11.535156 C 14.699219 11.527344 14.722656 11.542969 14.726562 11.582031 C 14.65625 11.617188 14.585938 11.652344 14.515625 11.695312 C 14.472656 11.691406 14.433594 11.675781 14.398438 11.648438 C 14.429688 11.632812 14.460938 11.636719 14.488281 11.652344 C 14.539062 11.667969 14.554688 11.621094 14.589844 11.597656 C 14.617188 11.59375 14.6875 11.578125 14.664062 11.535156 Z M 14.664062 11.535156 "/>
<path style="fill-rule:evenodd;fill:rgb(27.058825%,57.647061%,77.64706%);fill-opacity:1;stroke-width:0.5;stroke-linecap:butt;stroke-linejoin:miter;stroke:rgb(27.058825%,57.647061%,77.64706%);stroke-opacity:1;stroke-miterlimit:4;" d="M 494.875 357.25 C 484.625 355.625 445.5 325.625 437.75 315.625 C 423 300 413 282.875 407.625 262 C 406.125 256.125 405 250.25 404.25 244.25 C 403.75 243.875 403.125 243.75 402.5 243.75 C 396.25 243.75 390 243.875 383.75 244.25 C 383.375 244.625 383.25 245 383.375 245.5 C 387.625 300.625 423.75 338.875 467.875 367.625 C 468.375 368 468.875 368.5 469.25 369.125 C 470 370.5 467.75 371 466.875 371.125 C 465.75 371.875 465.25 373.375 463.625 372.875 C 462.75 372.375 461.75 372.25 460.75 372.75 C 414.125 343.25 375.375 297.25 375 239.625 C 375.25 237 376.875 235.625 379.5 235.75 C 389.25 235.375 398.875 235.375 408.5 236 C 410.75 236.125 412.25 237.5 412.625 239.75 C 416 295 456.875 327 501.125 352.5 C 501.625 352.875 501.75 353.375 501.375 353.875 C 499.25 355 497 356.125 494.875 357.25 Z M 637 728 C 636.75 728 636.625 728 636.375 728 C 636.25 729 636.375 730 636.5 730.875 C 637.875 734 639.125 737.125 640.375 740.375 C 642 745.75 643.5 751.375 644.625 757 C 644.875 760.875 645.5 764.75 646.75 768.5 C 647 772.5 647.25 776.5 647.625 780.5 C 646.875 783.125 647.5 785.75 644.5 786.875 C 635.125 787 625.875 786.875 616.5 786.875 C 613.875 787.125 613.125 784.25 612 782.375 C 612.125 780.5 612.125 778.5 612.125 776.5 C 611.625 773.125 611.25 769.75 611 766.375 C 609.875 763.25 609.125 760 608.625 756.625 C 605.875 750.375 603.25 744 601 737.375 C 600.5 736.75 597.625 730.125 596.75 733.25 C 578.625 704.375 552.5 686.5 523.5 669.875 C 522.875 669.375 522.875 668.75 523.5 668.125 C 525.375 667 527.125 666 529 664.875 C 530 664.875 531 665 532 665.5 C 569.25 685.75 606.5 716.625 616.125 760 C 617.75 766 618.625 772.25 618.875 778.5 C 618.875 779.125 619.125 779.625 619.625 779.875 C 626.25 780.125 632.875 780.25 639.5 780 C 640.375 779.875 640.75 779.375 640.75 778.5 C 640.5 770.75 639.375 763.25 637.25 755.875 C 626.75 709.5 593.5 677.25 554 653.375 C 553.375 653.125 553 652.625 552.75 652 C 555.375 650.25 559.125 646.75 562.5 649 C 593.625 667.625 621.75 694.625 637 728 Z M 637 728 " transform="matrix(0.03125,0,0,0.03125,0,0)"/>
<path style=" stroke:none;fill-rule:evenodd;fill:rgb(35.294119%,56.078434%,67.058825%);fill-opacity:1;" d="M 15.570312 19.117188 C 15.601562 19.140625 15.722656 19.179688 15.65625 19.230469 C 15.617188 19.25 15.574219 19.269531 15.535156 19.292969 C 15.523438 19.285156 15.515625 19.277344 15.511719 19.265625 C 15.535156 19.25 15.554688 19.230469 15.570312 19.203125 C 15.5625 19.179688 15.554688 19.15625 15.542969 19.136719 C 15.546875 19.125 15.558594 19.117188 15.570312 19.117188 Z M 15.570312 19.117188 "/>
<path style="fill-rule:evenodd;fill:rgb(25.098041%,57.647061%,78.823531%);fill-opacity:1;stroke-width:0.5;stroke-linecap:butt;stroke-linejoin:miter;stroke:rgb(25.098041%,57.647061%,78.823531%);stroke-opacity:1;stroke-miterlimit:4;" d="M 432 559 C 434.875 562.75 437.875 566.5 441 569.875 C 440.375 570.125 440.125 570.625 440.25 571.25 C 441.875 573 443.5 574.625 445.25 576.375 C 446.25 576.875 447.25 577.625 448.25 578.25 C 450.25 580.25 452.125 582.375 454.125 584.375 C 455 584.875 455.875 585.375 456.75 585.75 C 459.125 588 461.5 590.125 464.125 592.125 C 470.375 596.25 476.5 600.5 482.75 604.625 C 483.375 604.75 488.625 608.75 488 606 C 491.375 608 494.75 609.875 498.25 611.75 C 497.875 611.75 497.5 612 497.375 612.375 C 497.75 613 498 613.75 498.25 614.5 C 497.75 615.375 497.125 616 496.375 616.5 C 496.5 616.875 496.75 617.125 497.125 617.375 C 496 618 495 618.625 493.875 619.125 C 450.625 595 400.25 554.125 395.375 501.25 C 394.875 493.625 394.875 485.875 395.5 478.125 C 396.375 471 398.125 464.5 399.875 457.625 C 400.5 456.875 400.875 456.25 401.25 455.5 C 400.875 454 400.25 453.875 399.5 455.25 C 397.375 459.375 395.375 463.5 393.375 467.75 C 386.375 482.5 383 498.125 383.375 514.375 C 385.375 565.75 426.625 603.375 467.375 628.625 C 468 630.25 469 631.25 467.125 632.625 C 464.375 633.875 464.5 634.25 461.375 633.375 C 460.75 633.25 460.25 633.375 459.75 633.75 C 456.375 631.625 453.125 629.375 449.75 627.25 C 450.5 627 450.625 626.625 450.25 626.125 C 448.5 624.5 446.75 623 445 621.625 C 441.25 619.375 437.75 617 434.25 614.375 C 433.75 614.25 433.25 614.25 432.75 614.625 C 430.5 612.75 428.25 611 426 609 C 426.125 608.625 426.125 608.25 425.875 607.875 C 420.5 602.5 415.125 597.125 409.875 591.75 C 409.375 591.5 409 591.625 408.875 592.125 C 373 553.375 363.75 500.5 391 454 C 391.75 454.25 392.375 454 393 453.5 C 401.375 440.125 411.25 428.25 423 417.625 C 429.625 412.25 436.25 406.75 442.75 401.375 C 444.375 400 446 399.125 447.875 398.375 C 448.25 398.125 448.5 397.75 448.875 397.375 C 450.5 396.25 452.25 395.25 454 394.375 C 456.5 392.25 459.125 390.25 461.875 388.5 C 464.625 387 467.25 385.375 469.75 383.5 C 469.625 383.125 469.25 382.75 468.875 382.625 C 473 380.25 477.125 377.75 481.375 375.375 C 493.875 368.625 506.375 361.625 518.875 354.75 C 520.625 356 524.25 352.75 525.875 352.125 C 528.625 351.625 529.625 350.625 531.375 348.875 C 538.875 344.875 546 340.375 552.875 335.375 C 553.5 335 554.25 334.75 554.875 334.5 C 556 332.375 556.875 332.375 558.875 331.5 C 559.875 329.375 561 329.25 563 328.375 C 564 327.375 564.875 326.375 565.875 325.375 C 570.875 321.875 575.625 316.875 580.125 312.625 C 580.625 311.75 581.125 311 581.625 310.25 C 583 309.25 584.25 308.125 585.5 307 C 586.375 305 586.375 304.25 588.25 303 C 588.875 301.875 589.5 300.75 590.25 299.75 C 593.25 296.375 596 292.875 598.5 289 C 599.375 287 600.375 284.875 601.375 282.875 C 603 281.5 602 281.25 602.75 279.5 C 604.125 277.875 605 276 605.25 273.875 C 605.5 273.5 605.875 273.25 606.125 272.75 C 607.75 268 609.25 263.25 610.625 258.375 C 611.625 252.75 612.125 247.125 612.5 241.5 C 613 240.25 613.25 237.875 614.75 237.25 C 624.375 237.125 633.875 237 643.5 237 C 646.375 237.125 647.75 238.625 647.875 241.5 C 647.75 245.5 647.375 249.5 646.875 253.375 C 646.375 255.5 645.875 257.625 645.375 259.75 C 645.375 260.625 645.375 261.625 645.375 262.5 C 644.125 266.25 643.25 270 642.625 273.75 C 640.625 279.25 638.625 284.625 636.625 290.125 C 634.125 295.5 631.375 300.75 628.5 306 C 625.25 311.125 622 316.125 618.625 321.125 C 615.5 325.125 612.375 329 609.25 332.75 C 601.875 340.125 594.375 347.25 586.625 354.125 C 586.125 354.625 585.5 355 584.75 355.25 C 582.625 357.125 580.5 359 578.25 360.75 C 570.625 365.875 562.875 370.75 555 375.625 C 553.625 376.5 552.375 377.5 551.125 378.625 C 541.5 384 531.75 389.375 522.125 394.75 C 521.375 395.125 520.75 395.375 520 395.5 C 517.5 397.5 514.875 399.125 512.125 400.5 C 505.75 403.375 499.75 406.875 494.125 410.875 C 490.625 412.625 487.125 414.5 483.625 416.25 C 480.625 418.625 477.375 420.75 474.125 422.75 C 467.625 427.125 461.25 431.875 455.125 436.875 C 452.875 438.875 450.75 441 448.75 443.25 C 447.5 444 446.375 444.875 445.125 445.625 C 443.5 447.625 441.625 449.375 439.75 451.125 C 438 453.625 436 455.875 433.875 458.125 C 430.375 463.375 426.875 468.5 423.375 473.625 C 421.875 476.875 420.5 480.25 419.125 483.5 C 417.875 487.25 416.75 491 415.375 494.75 C 414.5 498.875 414 503.125 413.875 507.5 C 413.875 510.25 413.875 512.875 413.875 515.625 C 414.375 519.875 415 524.25 416 528.5 C 417.125 532.375 418.375 536.125 419.5 540 C 421.125 545.125 424.25 549.375 426.75 554 C 427.75 555 430.25 559.875 432 559 Z M 402.625 491 C 402.875 499.875 404 508.75 406 517.5 C 406.125 518.375 406.75 519.125 407.5 519.625 C 407.875 519.375 408 519 408 518.5 C 400.5 468.625 450.625 426.625 489.75 405.25 C 555.25 369.625 635.375 329.625 640.875 244.5 C 640.625 244 640.25 243.625 639.625 243.625 C 633.25 243.875 626.875 244 620.5 244 C 620 244 619.5 244.25 619.25 244.75 C 612.25 320.875 537.5 354 479 386.5 C 436.25 411.25 404.5 438 402.625 491 Z M 574.25 394.75 C 573.75 394.875 573.5 395.125 573.375 395.5 C 577.75 399.875 583.625 403.25 588.75 406.875 C 592.125 409.75 595.5 412.625 598.75 415.625 C 599.625 416.125 600 415.875 600.125 415 C 621.75 434.75 639.375 457.75 646 487 C 643.875 486.375 645.375 489.875 645.5 490.5 C 645.5 491.375 645.5 492.25 645.5 493 C 646.75 497.25 647 501.125 647 505.5 C 647.375 506.875 647.5 508.125 647.75 509.5 C 647.25 514.5 646.875 519.375 646.875 524.375 C 646 527 645.5 529.75 645.5 532.5 C 643.625 539.25 641.5 546 639.375 552.625 C 636.75 558 634 563.375 631.25 568.75 C 625.875 576.375 620.375 583.875 614.75 591.25 C 611 595.125 607.125 598.875 603.125 602.625 C 599.25 606.125 595.25 609.375 591.125 612.625 C 589.875 614.125 588.625 615.5 587.25 616.875 C 587 617.25 586.875 617.625 587.125 618.125 C 582.5 621.5 577.875 624.875 573 628 C 573 627.125 572.5 626.75 571.625 627 C 567.75 629.625 564 632.25 560.125 634.875 C 556.125 636.25 552.5 639.25 548.625 641.125 C 548 642.25 547 643 545.625 643.25 C 545.125 643.625 544.625 644.125 544.125 644.625 C 536.5 648.75 528.875 652.75 521.125 656.625 C 520.875 657 520.5 657.375 520.25 657.75 C 518 658.25 516 659.375 514.5 661.125 C 513.75 661.375 513 661.5 512.25 661.75 C 511.875 662.125 511.625 662.375 511.25 662.75 C 506.75 665.375 502.125 667.75 497.375 669.875 C 493 672.625 488.625 675.25 484.125 677.75 C 482.5 679 480.875 680.25 479.25 681.625 C 476 683.625 472.875 685.5 469.75 687.125 C 467.5 689.375 464.875 691.125 462.25 692.75 C 460 694.5 457.75 696.25 455.625 698.125 C 454.25 699.375 452.875 700.75 451.625 702.125 C 451.25 702.75 451.375 703.125 452.25 703.25 C 451.125 704.125 450.125 705.125 449.125 706.125 C 448.75 704.875 448.125 704.75 447.25 705.75 C 444.875 708.375 442.375 710.875 439.75 713.125 C 438.375 715.375 436.625 717.375 434.75 719.125 C 431.375 723.5 428.125 728 425.25 732.625 C 422.875 737.125 420.625 741.5 418.5 746.125 C 417.25 750.375 415.875 754.75 414.5 759 C 414.375 760.875 414 762.75 413.25 764.5 C 413.125 767.875 412.625 771.25 411.875 774.5 C 411.375 778.875 413.5 785.375 407.375 786.625 C 398.5 786.75 389.5 786.875 380.5 786.875 C 378 786.875 377 784.5 376.25 782.5 C 376.75 778.5 377 774.625 377.125 770.625 C 378.125 763.25 379.5 755.875 381 748.625 C 382.25 744.5 383.625 740.5 385.125 736.625 C 387 732.125 388.75 727.75 390.625 723.25 C 392.75 719.625 394.75 716 396.75 712.375 C 400.875 705.625 406 699.5 410.75 693.25 C 411.625 692.5 412.5 691.625 413.375 690.875 C 413.75 690 414.25 689.125 414.875 688.375 C 422.375 679.75 431.625 673.125 439.75 665.375 C 440.5 665 441.25 664.625 442 664.375 C 442.375 663.75 442.75 663.25 443.125 662.625 C 444.5 662 445.75 661.125 446.875 660.125 C 449.75 659 452.375 657.25 454.5 654.875 C 457 653.375 459.5 652 462.125 650.625 C 468.25 646.625 474.25 642.625 480.375 638.75 C 490.25 633.625 499.875 628.25 509.5 622.875 C 512 621.75 514.375 620.5 516.625 619.125 C 518 619 519 618.375 519.75 617.25 C 522.25 615.75 524.875 614.25 527.375 612.75 C 529.375 612.75 529.125 612 530.625 611 C 534.625 608.75 538.75 606.375 542.75 604.125 C 545.625 602.25 548.25 600.375 550.75 598.25 C 551.5 598 552.25 597.625 552.875 597.375 C 553.375 596.875 553.75 596.25 554.25 595.75 C 557.125 594 560 592.125 562.75 590.125 C 565.125 588 567 585.625 570 584.5 C 571.625 582.125 573.625 580.125 576 578.375 C 576.625 578.125 577.25 577.875 577.875 577.375 C 579.875 575.125 582 573 584.125 570.875 C 585.875 568 588.125 565.5 590.875 563.375 C 591.875 562 592.625 560.375 593.25 558.75 C 599.75 551.375 603.5 541.75 606.75 532.5 C 607 531.625 607.625 529.75 606 530 C 609.375 517.375 609.375 504.625 606 492 C 606.5 492.125 606.75 491.875 606.75 491.375 C 606.375 489.5 605.875 487.75 605.375 485.875 C 604.25 483.875 604.375 481.25 602.625 479.5 C 602.5 478 602.125 476.5 601.5 475.125 C 599.875 473 598.5 470.625 597.25 468.25 C 596.5 467.625 595.875 466.875 595.375 466.125 C 594.375 464.5 593.375 462.75 592.375 461.125 C 591.875 460.625 591.375 460.125 590.875 459.75 C 590.375 458.875 589.875 458 589.375 457.125 C 586 453.25 582.5 449.375 578.875 445.625 C 577.875 445 576.875 444.25 575.75 443.75 C 574 441.875 572.125 440 570.375 438.125 C 568.625 437.75 567.25 436.75 566.375 435.125 C 562.5 432.125 558.5 429.125 554.375 426.375 C 553.375 426 551.75 424.375 550.75 425.625 C 546.625 422.75 542.375 420 538.125 417.375 C 532.875 414.25 527.625 411.125 522.5 408 C 522.125 407.625 522.25 407.25 522.625 407 C 525.125 405.75 527.625 404.375 530 402.875 C 533.25 404.5 536.375 406.125 539.5 408 C 590.75 440.625 635.625 481.25 628.25 548 C 627.5 553.125 626.375 558.25 624.75 563.125 C 623.875 564.5 623.125 566.125 622.75 567.75 C 623.5 568.75 624 567.75 624.625 567.125 C 627.375 561.5 630 555.875 632.5 550.25 C 650.25 510.25 637.375 466.75 608.75 435.75 C 592.5 418.25 574.125 403.75 553.5 391.875 C 553 391.5 552.75 391 552.875 390.375 C 555.125 388.875 557.375 387.75 559.75 386.75 C 563.875 386.625 570.5 392.75 574.25 394.75 Z M 383.25 778.875 C 383.75 779.875 384.5 780.125 385.5 780 C 391.5 780.125 397.625 780.25 403.625 780.25 C 404.25 780.25 404.625 780 405 779.5 C 409 717.625 453.25 687.75 502 659.375 C 547 634.25 609.75 607.875 619.375 550.875 C 623 533.875 622 521.875 617.5 505.125 C 616.75 503.625 616.125 503.75 615.75 505.375 C 616.125 509.125 616.25 512.75 616 516.375 C 612.625 591 511.25 625 459 660.5 C 417.75 686.875 385 728.25 383.25 778.875 Z M 383.25 778.875 " transform="matrix(0.03125,0,0,0.03125,0,0)"/>
<path style="fill-rule:evenodd;fill:rgb(29.803923%,65.882355%,87.450981%);fill-opacity:1;stroke-width:0.5;stroke-linecap:butt;stroke-linejoin:miter;stroke:rgb(29.803923%,65.882355%,87.450981%);stroke-opacity:1;stroke-miterlimit:4;" d="M 402.625 491 C 404.5 438 436.25 411.25 479 386.5 C 537.5 354 612.25 320.875 619.25 244.75 C 619.5 244.25 620 244 620.5 244 C 626.875 244 633.25 243.875 639.625 243.625 C 640.25 243.625 640.625 244 640.875 244.5 C 635.375 329.625 555.25 369.625 489.75 405.25 C 450.625 426.625 400.5 468.625 408 518.5 C 408 519 407.875 519.375 407.5 519.625 C 406.75 519.125 406.125 518.375 406 517.5 C 404 508.75 402.875 499.875 402.625 491 Z M 383.25 778.875 C 385 728.25 417.75 686.875 459 660.5 C 511.25 625 612.625 591 616 516.375 C 616.25 512.75 616.125 509.125 615.75 505.375 C 616.125 503.75 616.75 503.625 617.5 505.125 C 622 521.875 623 533.875 619.375 550.875 C 609.75 607.875 547 634.25 502 659.375 C 453.25 687.75 409 717.625 405 779.5 C 404.625 780 404.25 780.25 403.625 780.25 C 397.625 780.25 391.5 780.125 385.5 780 C 384.5 780.125 383.75 779.875 383.25 778.875 Z M 383.25 778.875 " transform="matrix(0.03125,0,0,0.03125,0,0)"/>
</g>
</svg>
